<?xml version="1.0" encoding="UTF-8" standalone="no"?>
<svg
   xmlns:dc="http://purl.org/dc/elements/1.1/"
   xmlns:cc="http://creativecommons.org/ns#"
   xmlns:rdf="http://www.w3.org/1999/02/22-rdf-syntax-ns#"
   xmlns:svg="http://www.w3.org/2000/svg"
   xmlns="http://www.w3.org/2000/svg"
   id="svg3705"
   version="1.1"
   viewBox="0 0 48 48"
   height="48"
   width="48">
  <defs
     id="defs3699" />
  <metadata
     id="metadata3702">
    <rdf:RDF>
      <cc:Work
         rdf:about="">
        <dc:format>image/svg+xml</dc:format>
        <dc:type
           rdf:resource="http://purl.org/dc/dcmitype/StillImage" />
        <dc:title></dc:title>
      </cc:Work>
    </rdf:RDF>
  </metadata>
  <g
     style="display:inline"
     transform="translate(0,-284.29998)"
     id="layer1">
    <rect
       rx="2"
       y="288.29999"
       x="4"
       height="40"
       width="40"
       id="rect3721"
       style="fill:#455a63;fill-opacity:1" />
    <path
       id="rect4528"
       transform="translate(0,284.29998)"
       d="M 16 10 L 16 22 L 4 22 L 4 38 L 44 38 L 44 22 L 44 10 L 16 10 z "
       style="fill:#fafafa;fill-opacity:1;stroke-width:1.41421354" />
    <rect
       y="294.29999"
       x="16"
       height="2"
       width="28"
       id="rect4528-3-6"
       style="fill:#e91e63;fill-opacity:1;stroke-width:0.41833001" />
    <g
       transform="matrix(0.5,0,0,0.5,6,308.29997)"
       id="g4578"
       style="fill:#000000">
      <path
         style="fill:none"
         d="M 0,0 H 24 V 24 H 0 Z"
         id="path4564" />
      <path
         style="fill:#000000;fill-opacity:0.54117647"
         d="M 20,11 H 7.83 L 13.42,5.41 12,4 4,12 12,20 13.41,18.59 7.83,13 H 20 Z"
         id="path4566" />
    </g>
    <g
       transform="matrix(0.5,0,0,0.5,18,308.29997)"
       id="g4609"
       style="fill:#000000">
      <path
         style="fill:none"
         d="M 0,0 H 24 V 24 H 0 Z"
         id="path4595" />
      <path
         style="fill:#000000;fill-opacity:0.54117647"
         d="M 12,4 10.59,5.41 16.17,11 H 4 v 2 H 16.17 L 10.59,18.59 12,20 20,12 Z"
         id="path4597" />
    </g>
    <g
       transform="matrix(0.5,0,0,0.5,30,308.29997)"
       id="g4625"
       style="display:inline;fill:#000000">
      <path
         style="opacity:0.87900002;fill:#000000;fill-opacity:0.54117647"
         d="M 17.65,6.35 C 16.2,4.9 14.21,4 12,4 7.58,4 4.01,7.58 4.01,12 c 0,4.42 3.57,8 7.99,8 3.73,0 6.84,-2.55 7.73,-6 H 17.65 C 16.83,16.33 14.61,18 12,18 8.69,18 6,15.31 6,12 6,8.69 8.69,6 12,6 c 1.66,0 3.14,0.69 4.22,1.78 L 13,11 h 7 V 4 Z"
         id="path4611" />
      <path
         style="fill:none"
         d="M 0,0 H 24 V 24 H 0 Z"
         id="path4613" />
    </g>
  </g>
</svg>
